<svg width="32" height="32" viewBox="0 0 32 32" fill="none" xmlns="http://www.w3.org/2000/svg">
<circle cx="16" cy="16" r="16" fill="white"/>
<path d="M23 11H22.18L20.48 6.32C20.3393 5.9341 20.0836 5.60065 19.7474 5.36462C19.4112 5.12858 19.0108 5.00132 18.6 5H17C16.45 5 16 5.45 16 6C16 6.55 16.45 7 17 7H18.6L20.06 11H15.25L14.89 10H14.98C15.53 10 15.98 9.55 15.98 9C15.98 8.45 15.53 8 14.98 8H12C11.45 8 11 8.45 11 9C11 9.55 11.45 10 12 10H12.75L14.57 15H13.9C13.46 12.77 11.59 11.12 9.25 11.01C6.45 10.87 4 13.2 4 16C4 18.8 6.2 21 9 21C11.46 21 13.45 19.31 13.9 17H18.1C18.54 19.23 20.41 20.88 22.75 20.99C25.55 21.12 28 18.8 28 15.99C28 13.2 25.8 11 23 11ZM10 17H11.82C11.4 18.23 10.22 19.08 8.8 18.99C7.31 18.9 6.07 17.64 6 16.14C5.93 14.39 7.27 13 9 13C10.33 13 11.42 13.83 11.82 15H10C9.45 15 9 15.45 9 16C9 16.55 9.45 17 10 17ZM18.1 15H16.7L15.97 13H19C18.56 13.58 18.24 14.25 18.1 15ZM22.88 19C21.34 18.94 20.04 17.63 20 16.08C19.98 15.12 20.39 14.28 21.05 13.72L21.67 15.42C21.86 15.94 22.43 16.21 22.95 16.02C23.47 15.83 23.74 15.26 23.55 14.74L22.92 13.01L22.93 13C23.3309 12.9863 23.7305 13.0541 24.1045 13.1991C24.4785 13.3441 24.8193 13.5634 25.1062 13.8438C25.3932 14.1242 25.6203 14.4598 25.7739 14.8304C25.9275 15.201 26.0044 15.5989 26 16C26 17.72 24.62 19.06 22.88 19ZM15 24H11L17 27V25H21L15 22V24Z" fill="url(#paint0_linear_17_528)"/>
<defs>
<linearGradient id="paint0_linear_17_528" x1="16" y1="5" x2="16" y2="27" gradientUnits="userSpaceOnUse">
<stop stop-color="#FFB60D"/>
<stop offset="1" stop-color="#E59317"/>
</linearGradient>
</defs>
</svg>
